<svg xmlns="http://www.w3.org/2000/svg" xmlns:xlink="http://www.w3.org/1999/xlink" viewBox="0 0 814 962"><defs><linearGradient id="linear-gradient" y1="481" x2="814" y2="481" gradientUnits="userSpaceOnUse"><stop offset="0" stop-color="#0f152e"/><stop offset="0.07" stop-color="#17232f"/><stop offset="0.2" stop-color="#2b4931"/><stop offset="0.37" stop-color="#4b8634"/><stop offset="0.5" stop-color="#66b837"/><stop offset="0.51" stop-color="#65b737"/><stop offset="0.63" stop-color="#477e34"/><stop offset="0.75" stop-color="#2f5031"/><stop offset="0.85" stop-color="#1d302f"/><stop offset="0.94" stop-color="#131c2e"/><stop offset="1" stop-color="#0f152e"/></linearGradient><linearGradient id="New_Gradient_Swatch_3" x1="589.96" y1="622.32" x2="400.33" y2="622.32" gradientUnits="userSpaceOnUse"><stop offset="0" stop-color="#f2fc14"/><stop offset="0.1" stop-color="#d7f620"/><stop offset="0.24" stop-color="#bbf02c"/><stop offset="0.38" stop-color="#a6eb36"/><stop offset="0.54" stop-color="#97e83d"/><stop offset="0.73" stop-color="#8ee641"/><stop offset="1" stop-color="#8be542"/></linearGradient><linearGradient id="New_Gradient_Swatch_3-2" x1="3.78" y1="558.11" x2="309.36" y2="558.11" xlink:href="#New_Gradient_Swatch_3"/><linearGradient id="New_Gradient_Swatch_1" x1="732.32" y1="363.09" x2="429.15" y2="363.09" gradientUnits="userSpaceOnUse"><stop offset="0" stop-color="#8be542"/><stop offset="1" stop-color="#66a537"/></linearGradient><linearGradient id="New_Gradient_Swatch_3-3" x1="505.55" y1="173.5" x2="329.46" y2="349.58" xlink:href="#New_Gradient_Swatch_3"/></defs><g id="Layer_2" data-name="Layer 2"><g id="Neuron"><path id="dendrite-10" d="M324,432.47a188.88,188.88,0,0,0-25.64-27.33,114.43,114.43,0,0,0-15.5-11.25,84.21,84.21,0,0,0-17.72-8.12,87.44,87.44,0,0,0-19-3.76,141.24,141.24,0,0,0-18.82-.29c-12.33.52-24.23,2.09-35.87,2.16a156.76,156.76,0,0,1-45.88-6.24,5,5,0,0,0-.18-.74c-2.35-6.82-3.5-14.27-4.35-21.91-.42-3.82-.83-7.75-1.18-11.55a101.8,101.8,0,0,1-.46-11.23,48.57,48.57,0,0,1,1.43-10.78A59.82,59.82,0,0,1,144.53,311c3.1-6.82,7.27-13.32,11.49-19.86v0a2.78,2.78,0,0,0-4.61-3.12c-4.54,6.37-9.17,12.84-12.9,20.08a67,67,0,0,0-4.69,11.41,56.64,56.64,0,0,0-1.47,6.11,62.24,62.24,0,0,0-.76,6.19,107.65,107.65,0,0,0-.09,12.17c.17,4,.39,7.84.64,11.8a131.48,131.48,0,0,0,2.2,18.12q-5.5-2.07-10.84-4.58a144.79,144.79,0,0,1-29.68-18.68,147.55,147.55,0,0,1-24.44-25.37v0a3,3,0,0,0-4.77,3.5A154.26,154.26,0,0,0,89.28,356a152.51,152.51,0,0,0,30.61,20.64,164.28,164.28,0,0,0,71.5,17.68c12.44.29,24.51-.92,36.22-1s23.1.79,33.44,4.52,19.72,10.06,28.13,17.72a173.94,173.94,0,0,1,22.84,26l0,0,.13.16A7.5,7.5,0,1,0,324,432.47Z" fill="#66a537"/><path id="dendrite-9" d="M304.21,450.69a116.55,116.55,0,0,0-23.53-8.43l-6.1-1.3-6.16-.89c-2.05-.36-4.13-.4-6.19-.58l-3.1-.23c-1-.05-2.07,0-3.11-.05l-3.1,0c-1,0-2.07,0-3.1.06l-6.19.35c-4.1.49-8.21.9-12.25,1.78a114.18,114.18,0,0,0-19.89,5.71l-.15.06c-1.19.47-2.38,1-3.55,1.47a110.8,110.8,0,0,0-21.4,12.21c-6.63,4.86-12.47,10.36-18.63,15.19a85.49,85.49,0,0,1-9.52,6.63,46.88,46.88,0,0,1-10.4,4.54,35,35,0,0,1-11.09,1.5,24.64,24.64,0,0,1-10.61-2.7l0,0a2,2,0,0,0-1.85,3.49A28.84,28.84,0,0,0,136.52,493a39.35,39.35,0,0,0,12.58-1.29,51.66,51.66,0,0,0,11.64-4.65,91,91,0,0,0,10.33-6.71c6.55-4.82,12.54-10.1,18.94-14.47a100.82,100.82,0,0,1,17.56-9.62c-.07,1.13-.1,2.26-.06,3.36a61.2,61.2,0,0,0,1.06,8.27c1,5.24,2.37,10.09,3,14.73a30.54,30.54,0,0,1,.21,6.72,11.92,11.92,0,0,1-.21,1.59c-.09.52-.15,1.06-.29,1.57a23.32,23.32,0,0,1-1,3.09c-1.69,4.11-4.6,8.14-7.57,12.17A150.31,150.31,0,0,1,158,547.41a2,2,0,0,0,1.89,3.47,155.89,155.89,0,0,0,48.23-38.79c1.64-2,3.29-4,4.86-6.22a45.57,45.57,0,0,0,4.3-7.13,29.14,29.14,0,0,0,1.59-4.09c.23-.71.37-1.44.53-2.16a17,17,0,0,0,.4-2.18,38.41,38.41,0,0,0,.18-8.55c-.46-5.52-1.62-10.59-2.31-15.4a51.08,51.08,0,0,1-.55-6.92,25.63,25.63,0,0,1,.86-6.2l0-.16c0-.06,0-.12.05-.19a5,5,0,0,0,.06-.54A110.89,110.89,0,0,1,232.74,449c3.79-.71,7.65-1,11.48-1.3l5.77-.15c1-.05,1.92,0,2.88,0l2.88.12c1,0,1.92.05,2.88.12l2.86.31c1.9.24,3.82.32,5.7.72l5.66,1,5.57,1.37a107.35,107.35,0,0,1,21.19,8.35l.1.06.12.06a5,5,0,0,0,4.38-9Z" fill="#11583b"/><path id="dendrite-4" d="M625.48,592.62a3,3,0,0,0-4.13-.67l-.12.08a21.77,21.77,0,0,1-5.63,3,25.69,25.69,0,0,1-6.37,1.1,31.83,31.83,0,0,1-6.58-.58,35.15,35.15,0,0,1-6.38-2c-8.31-3.4-14.72-10.32-20-18.08s-9.74-16.62-15.07-25.17c-3.71-6-7.65-11.94-11.95-17.65l.29,0a35.47,35.47,0,0,0,9.3-2.7,69.1,69.1,0,0,0,15.1-9.77c2.25-1.84,4.4-3.72,6.54-5.56l6.43-5.55,12.87-11.1a2,2,0,0,0-2.44-3.1l-13.81,9.91-6.9,5c-2.31,1.65-4.58,3.3-6.86,4.85A61,61,0,0,1,555.67,522a22.2,22.2,0,0,1-13.83.57,3.9,3.9,0,0,0-.46-.12,4.88,4.88,0,0,0-.52-.06,127,127,0,0,0-19.34-18.12,106.68,106.68,0,0,0-13.16-8.49,103.37,103.37,0,0,0-14.54-6.25A123.59,123.59,0,0,0,463.18,484c-10.21-.68-20.28-.53-30.14-.37h-.29a7.5,7.5,0,0,0,.83,15c9.82-.54,19.46-1,28.93-.77A110.39,110.39,0,0,1,490,501.67a90,90,0,0,1,12.77,4.92,94.6,94.6,0,0,1,11.92,7.07,120.88,120.88,0,0,1,21,18.81A196.93,196.93,0,0,1,553.3,555.3c5.41,8,10.14,16.66,16.26,24.91,1.52,2,3.14,4.07,4.88,6a59.46,59.46,0,0,0,5.57,5.54c1,.88,2,1.7,3.07,2.51.53.41,1.1.78,1.65,1.17a18.36,18.36,0,0,0,1.71,1.1,41,41,0,0,0,7.23,3.54,42.65,42.65,0,0,0,7.79,2.09,38.7,38.7,0,0,0,8.13.39,31.79,31.79,0,0,0,8.08-1.74,27.81,27.81,0,0,0,7.25-4.16A3,3,0,0,0,625.48,592.62Z" fill="#083541"/><path id="dendrite-6" d="M364.22,535.14a33.85,33.85,0,0,1,.25,12.92A104.19,104.19,0,0,1,362,558.68l-.62,2.37-.48,2.33-1,4.66a20.37,20.37,0,0,0-.39,2.36l-.31,2.38c-.19,1.59-.44,3.17-.6,4.77-1.13,12.85-.34,26.07,1.07,39.39s3.43,26.79,4.64,40.5,1.64,27.69-.23,41.59a4,4,0,0,1-7.9-.88v0c1.18-13.09.23-26.35-1.53-39.59s-4.34-26.53-6.37-40.12-3.52-27.5-2.89-41.76c.09-1.77.29-3.56.43-5.34l.23-2.68a24.33,24.33,0,0,1,.33-2.67l.87-5.34.45-2.67.55-2.58a89.15,89.15,0,0,0,1.75-9.27,19,19,0,0,0-.37-7.29,7.5,7.5,0,0,1,14.43-4.11,3.37,3.37,0,0,1,.09.34Z" fill="#083541"/><path id="dendrite-11" d="M423.47,413.77A94.63,94.63,0,0,0,444,401a140.62,140.62,0,0,0,17.79-17.43c11-12.74,20.47-27.17,29.8-41.71a3,3,0,0,1,5.12,3c-8.05,15.34-16.29,30.78-26.72,45.23a151.24,151.24,0,0,1-17.56,20.47,108.21,108.21,0,0,1-22.13,16.59l-.06,0a7.51,7.51,0,1,1-7.33-13.1A6.54,6.54,0,0,1,423.47,413.77Z" fill="#11583b"/><path id="Connector" d="M799,947S392.12,881.16,370.25,519.48,15,15,15,15" fill="none" stroke-linecap="round" stroke-miterlimit="10" stroke-width="30" opacity="0.71" stroke="url(#linear-gradient)"/><path d="M427.3,507.77c27.72-45.63,8.57-98.4-34.05-111.88-34.29-10.84-71.17,9.18-87.34,41.64-15.5,31.11-10.38,70.57,14.67,92.62C351.1,557,401.24,550.65,427.3,507.77Z" fill="#66a537"/><path d="M416.9,502.6c23.84-39.86,8.11-86.41-28.8-99.29-30.57-10.67-64.25,6.9-79.13,36.6-14.31,28.56-9.28,64.6,13.87,84.11C350.39,547.22,394.32,540.35,416.9,502.6Z" fill="#8be542"/><path d="M407.68,496.42c19.84-33.67,7.42-73.41-23.58-85.37-26.57-10.25-56.69,4.65-70.08,31.17-12.93,25.61-8,57.67,13.05,74.31C351.36,535.73,388.73,528.58,407.68,496.42Z" fill="#98ff61"/><path d="M383.34,479.68c-11.55,21.24-35.52,24.6-49.37,11.46-10.72-10.17-11.92-27.62-4.7-40.89s22.52-21.73,36.88-18.25C384.71,436.5,394.9,458.45,383.34,479.68Z" fill="#66a537"/><path d="M378.35,477.05c-11,20.21-32.71,24.79-45.31,13.18C323,481,322.1,463.82,329.4,450.41s22.16-22,35.42-18.57C381.41,436.12,389.35,456.84,378.35,477.05Z" fill="#41a3ff"/><path d="M369.7,472.34c-8.17,15-24.12,19.66-34,11.72-8.44-6.79-9.46-20.75-3.32-32s18.41-18,28.69-14.6C373.11,441.41,377.86,457.33,369.7,472.34Z" fill="#9bdcff"/><path d="M346.15,458.73c-2,3.69-5.19,5.61-7,4.36s-1.51-4.72.28-8,4.68-5.35,6.58-4.58S348.16,455,346.15,458.73Z" fill="#c1e9f4"/><path id="dendrite-7" d="M334.49,533.56a7.5,7.5,0,0,0-10.6-.39,125.88,125.88,0,0,0-20.16,24.08,162.24,162.24,0,0,0-14.2,27.44,221.27,221.27,0,0,0-9.38,29c-1.66,6.49-3,13-4.28,19.53a177.93,177.93,0,0,0-22.75-.87A80.53,80.53,0,0,0,241,633.73a51.93,51.93,0,0,0-11.87,3.74c-1,.39-1.89.92-2.82,1.4l-1.39.75-1.33.85a39.35,39.35,0,0,0-5.07,3.72,91.45,91.45,0,0,0-8.48,8.45c-2.62,2.85-5,5.71-7.75,8.13a53,53,0,0,1-4.09,3.69l-2.14,1.73c-.72.57-1.41,1.18-2.19,1.68a86,86,0,0,1-19.37,10.68,95.75,95.75,0,0,1-21.49,5.79,90.29,90.29,0,0,1-44.16-4.63h0a1.7,1.7,0,0,0-1.25,3.16,94.48,94.48,0,0,0,46,6.49,101.52,101.52,0,0,0,23-5.31,92.93,92.93,0,0,0,21.14-10.69c.85-.51,1.62-1.14,2.42-1.73l2.39-1.79a59.66,59.66,0,0,0,4.58-3.84l2.24-2c.71-.69,1.42-1.38,2.11-2.08l4-4.13a84.09,84.09,0,0,1,8-7.47,31.85,31.85,0,0,1,4.3-2.91l1.11-.66,1.16-.57a24.81,24.81,0,0,1,2.35-1.06c6.39-2.69,13.58-3.54,20.85-3.6a163.71,163.71,0,0,1,20.74,1.53.59.59,0,0,0,0,.13c-3.32,19.66-5.6,39.36-9.06,58.56a87.89,87.89,0,0,1-3.55,13.68A40.54,40.54,0,0,1,255,727.21,27.5,27.5,0,0,1,244.7,735a18.76,18.76,0,0,1-12.26,1.16h0a3.28,3.28,0,0,0-1.81,6.31,23.74,23.74,0,0,0,8.53,1,28.22,28.22,0,0,0,8.23-1.85,34.85,34.85,0,0,0,13.45-9.43,48.26,48.26,0,0,0,8.26-13.82,97.11,97.11,0,0,0,4.44-14.85c4.25-19.59,7.21-39.12,11.16-58.33s8.9-38,16.72-55.44,18.46-33.37,32.46-45.34l.06,0,.21-.19A7.5,7.5,0,0,0,334.49,533.56Z" fill="#66a537"/><path id="dendrite-5" d="M583.08,710.06c-10.14-4.86-20.19-9.71-29.65-15.33s-18.31-12-25.7-19.75c-1-.93-1.8-2-2.69-3l-1.32-1.51a19,19,0,0,1-1.28-1.54L520,665.76c-.85-1-1.56-2.2-2.34-3.29a145.89,145.89,0,0,1-8.5-13.94c-5.24-9.65-9.82-19.84-14.72-30.09a251.1,251.1,0,0,0-13-24.24c.83.14,1.66.3,2.49.49a47.16,47.16,0,0,1,11,4.18c7.15,3.72,13.83,8.88,20.49,14.21s13.36,10.95,20.72,15.86,15.54,9.11,24.52,10.8a2.65,2.65,0,0,0,1.1-5.19c-7.92-1.86-15.2-6-21.91-10.91s-13-10.71-19.51-16.42-13.23-11.47-21.16-16.08a56.41,56.41,0,0,0-12.85-5.56,44.06,44.06,0,0,0-11.85-1.69,245.67,245.67,0,0,0-19.32-22.31c-7.85-8.22-15.78-16.1-22.89-24.35A120.71,120.71,0,0,1,414.36,511l-.07-.15a.83.83,0,0,1-.07-.13,7.5,7.5,0,1,0-13.3,6.93,135,135,0,0,0,20.76,28.93c7.83,8.61,16.11,16.39,24,24.25a210.82,210.82,0,0,1,21.77,24.44,211.94,211.94,0,0,1,16.67,28.25c1.62,3.16,3.22,6.36,4.84,9.57a5.06,5.06,0,0,0,0,1.5c1.71,8.6,3.27,17.18,4.39,25.78A174.51,174.51,0,0,1,495,686.17a94.64,94.64,0,0,1-3.62,25.18,63,63,0,0,1-11.66,22.26,2.65,2.65,0,0,0,4,3.47h0a68.86,68.86,0,0,0,13.81-23.72,101.57,101.57,0,0,0,5.1-26.85,182,182,0,0,0-.49-27c-.06-.75-.14-1.49-.21-2.24,2.29,3.79,4.71,7.54,7.39,11.15.88,1.17,1.68,2.39,2.64,3.51l2.8,3.42c.45.58.94,1.13,1.45,1.67l1.5,1.63c1,1.07,2,2.2,3.06,3.2,8.42,8.35,18.17,15,28.21,20.59s20.45,10.29,30.73,14.89a4,4,0,0,0,3.33-7.21Z" fill="url(#New_Gradient_Swatch_3)"/><path id="dendrite-8" d="M309.44,493.55a7.49,7.49,0,0,0-8.13-6.81,141,141,0,0,0-16.26,2.43c-.9-.24-1.79-.47-2.69-.64l-4-.71a122.7,122.7,0,0,0-16-1.24c-10.53-.22-20.76.41-30.8,0-2.49-.15-5-.23-7.45-.54s-4.88-.65-7.31-1.05c-1.21-.21-2.37-.56-3.56-.84l-1.78-.43c-.59-.15-1.15-.38-1.73-.57L206.28,482c-1.12-.46-2.24-.94-3.33-1.46-8.83-4.2-16.66-10.72-24.48-17.34a2.65,2.65,0,0,0-3.5,4c7.59,6.91,15.44,14.08,25.08,19.15,1.2.63,2.43,1.21,3.67,1.77l3.8,1.47c.64.23,1.26.51,1.91.71l1.95.56c1.3.35,2.6.79,3.91,1.07,2.63.54,5.26,1.14,7.9,1.45s5.28.62,7.92.87c10.5.8,20.87.55,30.9,1.16l1.61.11c-1.23.48-2.44,1-3.67,1.51A141.59,141.59,0,0,0,241,506.75a140.11,140.11,0,0,0-17.17,12.59c-1.33,1.18-2.7,2.31-4,3.54L216,526.59c-2.45,2.58-4.89,5.17-7.15,7.86-4.5,5.37-8.59,10.86-12.67,16.11a146.7,146.7,0,0,1-12.69,14.72,59.92,59.92,0,0,1-14.76,11c-10.9,5.59-24.16,7.83-37.31,10.32-4.19.76-8.4,1.44-12.62,2.1a71.64,71.64,0,0,1-9.24-1.86A90.36,90.36,0,0,1,86,576.55a165,165,0,0,1-21-15.89c-6.74-5.8-13.42-11.85-20.64-17.33a2.12,2.12,0,0,0-2.62,3.34c6.84,5.57,13.22,11.76,19.82,17.86a171.67,171.67,0,0,0,21.14,17.18,99.09,99.09,0,0,0,18.08,9.47c-3,.35-6,.69-9,1-13.31,1.31-26.67,2.14-40.05,2.41s-26.77,0-40.14-.8h0A4,4,0,0,0,11,601.7q20.36,1.63,40.79,1.69t40.83-1.55c13.59-1,27.13-2.69,40.61-4.8,6.74-1.11,13.41-2.19,20.25-3.71a94,94,0,0,0,19.74-6.48,2.92,2.92,0,0,0-.14.31c-3.56,8.1-6.19,16.31-9.17,24.19a95.15,95.15,0,0,1-11.18,22c-4.69,6.6-10.78,12.18-18.18,15.2a2.65,2.65,0,0,0,1.89,4.94,42.86,42.86,0,0,0,11.94-6.63,56.63,56.63,0,0,0,9.53-9.61,102.7,102.7,0,0,0,13.1-23c3.42-8,6.4-15.93,10.07-23.33s8-14.19,13.73-19.4l.17-.16a4.9,4.9,0,0,0,1.13-1.78c3.48-3.67,6.68-7.5,9.77-11.29,4.32-5.31,8.42-10.56,12.7-15.45,2.14-2.44,4.38-4.7,6.62-7l3.52-3.26c1.18-1.08,2.44-2.07,3.65-3.11.52-.43,1.06-.84,1.59-1.25-.28,1.12-.57,2.25-.83,3.38a200.38,200.38,0,0,0-3.71,21.15c-.45,3.54-.76,7.11-1,10.67s-.35,7.18-.48,10.6a52.48,52.48,0,0,1-1.09,9.85,18.19,18.19,0,0,1-4,8.1l0,0a2.65,2.65,0,0,0,3.85,3.63,23.67,23.67,0,0,0,5.84-10.25,57.49,57.49,0,0,0,1.87-10.94c.33-3.57.62-6.94,1.05-10.37s.93-6.83,1.55-10.21a193.31,193.31,0,0,1,4.69-20.06c1.4-4.85,3-9.63,4.78-14.34.54-.33,1.07-.68,1.62-1a127.36,127.36,0,0,1,17.23-8.37c1.5-.56,3-1.21,4.48-1.69l4.54-1.52,4.6-1.31c1.53-.44,3.1-.75,4.64-1.13a125.4,125.4,0,0,1,18.85-2.74h.23A7.5,7.5,0,0,0,309.44,493.55Z" fill="url(#New_Gradient_Swatch_3-2)"/><path id="dendrite-3" d="M721.71,272.16a4,4,0,0,0-5.59-.59,104.49,104.49,0,0,0-16,16.08,116.27,116.27,0,0,0-12.18,19.08c-3.44,6.64-6.38,13.39-9.4,19.94a155.41,155.41,0,0,1-9.91,18.72,89.09,89.09,0,0,1-13,16.07,99.77,99.77,0,0,1-16.3,12.84,158.23,158.23,0,0,1-18.55,10.1c-6.43,3-13,5.82-19.74,8.51s-13.46,5.25-20.27,7.81-13.6,5.13-20.41,7.63c-9.72,3.58-19.45,7-29.22,10.3,1.56-2.52,3-5,4.44-7.59,4.11-7.42,7.77-14.88,11.88-21.91s8.75-13.61,14.55-18.93a43.29,43.29,0,0,1,9.51-6.73,37.47,37.47,0,0,1,11-3.64h0a2.65,2.65,0,0,0-.75-5.25A43.27,43.27,0,0,0,569,358.18a50.37,50.37,0,0,0-11.21,7.15C551,371,545.63,378,541,385.13s-8.68,14.51-13,21.47a104.75,104.75,0,0,1-12.59,17.1c-26.2,8-52.87,14-79.87,16.84h-.15a7.5,7.5,0,0,0,1.84,14.89c29.53-3.66,58.37-11,86.26-20.38,13.95-4.69,27.68-9.84,41.3-15.16l1.73-.68a239.59,239.59,0,0,0,34.74,2.09c12.55,0,25-.48,37.28-.26a181.73,181.73,0,0,1,36.37,3.85c11.83,2.64,23.29,7.06,33.15,14a2.65,2.65,0,0,0,3.11-4.29c-10.32-7.76-22.41-12.83-34.74-16a188,188,0,0,0-37.64-5.2c-12.58-.62-25.07-.54-37.4-.93-5.3-.16-10.57-.42-15.81-.84,6.62-2.65,13.26-5.32,19.87-8.13,6.77-2.87,13.52-5.86,20.19-9.18a171.12,171.12,0,0,0,19.56-11.18,110.48,110.48,0,0,0,17.65-14.51,99.43,99.43,0,0,0,14-18.12,166,166,0,0,0,10.12-20c2.94-6.74,5.69-13.4,8.82-19.75,1.59-3.16,3.21-6.29,5.05-9.26.87-1.52,1.87-2.95,2.81-4.42s2-2.87,3.06-4.23a96.39,96.39,0,0,1,14.44-15.11h0A4,4,0,0,0,721.71,272.16Z" fill="url(#New_Gradient_Swatch_1)"/><path id="dendrite-2" d="M508.54,184a2.64,2.64,0,0,0-3.72-.4,797,797,0,0,0-69,62.53c.09-1.05.18-2.09.25-3.16.6-9.36.82-19-.93-28.68A56.29,56.29,0,0,0,430.72,200a41.68,41.68,0,0,0-8.89-12.37,4,4,0,0,0-5.57,5.67l0,0a33.54,33.54,0,0,1,6.81,10.18,48,48,0,0,1,3.35,12.18c1.27,8.53.84,17.48,0,26.45-.44,4.48-1,9.05-1.56,13.62l-1.7,13.68q-1.74,13.67-3.87,27.2c-.47,2.82-1,5.64-1.45,8.45a210.69,210.69,0,0,1-13.37-18.45,205.87,205.87,0,0,1-15.57-29c-4.45-10-7.8-20.73-12.35-31.24a98.14,98.14,0,0,0-8.11-15.31A57.44,57.44,0,0,0,356.68,198a2.65,2.65,0,0,0-3.39,4.07h0a52,52,0,0,1,10.16,12.2,91.43,91.43,0,0,1,7.09,14.62c4,10.21,7,21.06,11.27,31.7A215.54,215.54,0,0,0,397,291.28a218.19,218.19,0,0,0,18.52,26.41c-.39,1.94-.79,3.87-1.22,5.8l-.71,3.33-.8,3.31-1.59,6.6c-1.2,4.36-2.28,8.75-3.65,13a254.58,254.58,0,0,1-9,25.38l-2.66,6.15c-.9,2-1.92,4-2.88,6l-1.46,3c-.49,1-1.05,2-1.57,2.94l-3.18,5.85-.19.34-.09.18a7.5,7.5,0,0,0,13.4,6.75l3.22-6.4c.53-1.07,1.09-2.12,1.59-3.2l1.45-3.27c1-2.18,2-4.33,2.87-6.53l2.61-6.63a268.7,268.7,0,0,0,8.64-27c1.28-4.53,2.26-9.12,3.36-13.69l1.43-6.88.71-3.44.62-3.45c1.75-9.19,3-18.42,4.27-27.64s2.17-18.45,3.05-27.66l.81-8.86a5.21,5.21,0,0,0,.78-.71,787.68,787.68,0,0,1,73-73.44A2.64,2.64,0,0,0,508.54,184Z" fill="url(#New_Gradient_Swatch_3-3)"/><path id="dendrite-1" d="M353.2,415.31A162.37,162.37,0,0,0,346,387.5l-2.59-6.69c-.91-2.21-2-4.36-2.93-6.53s-2.08-4.29-3.2-6.4-2.18-4.24-3.45-6.26a156,156,0,0,0-16.52-23.21L315,335.72l-1.16-1.35-1.24-1.28-3.62-3.74a5.08,5.08,0,0,0-.67-1.23c-16.68-21.52-23.63-51-18-78.32a2.65,2.65,0,0,0-5.15-1.22,101.85,101.85,0,0,0-3.24,30c-.14,0-.27,0-.41.05a12.44,12.44,0,0,1-7.32-.84,20,20,0,0,1-6.78-4.72,34.61,34.61,0,0,1-5.17-7.32c-1.49-2.72-2.77-5.62-4.07-8.58a2.12,2.12,0,0,0-4,1.5c1,3.09,2,6.22,3.37,9.33a40.52,40.52,0,0,0,5.17,9,26.5,26.5,0,0,0,8.39,7.13,20.17,20.17,0,0,0,11.4,2.4c.23,2,.52,4.06.87,6.07a106.41,106.41,0,0,0,5.41,19.67,134.78,134.78,0,0,0-15.45-9.58c-8.32-4.56-16.84-8.08-25.06-11.87-4.09-1.89-8.17-3.78-12.07-5.87-2-1-3.85-2.13-5.77-3.21-.94-.56-1.84-1.17-2.76-1.74l-1.38-.88c-.45-.3-.88-.63-1.32-.94l-2.62-1.89-2.47-2a26.51,26.51,0,0,1-2.35-2.14l-1.15-1.1a10.66,10.66,0,0,1-1.09-1.14l-2.07-2.37c-.7-.8-1.24-1.69-1.87-2.53l-.91-1.27c-.3-.43-.53-.9-.8-1.35l-1.56-2.71-.21-.38a4,4,0,0,0-7,3.83l1.74,3.29c.3.54.56,1.1.9,1.62l1,1.55c.71,1,1.34,2.09,2.12,3.05l2.33,2.86a14.63,14.63,0,0,0,1.23,1.37l1.28,1.32c.86.88,1.7,1.77,2.63,2.55l2.74,2.41,2.86,2.21c.48.36.95.74,1.44,1.09l1.48,1c1,.67,2,1.37,3,2,2,1.24,4,2.53,6.07,3.66,4.09,2.35,8.24,4.44,12.36,6.51l2.84,1.4a92.24,92.24,0,0,0-12.11,6.55,48,48,0,0,1-11.77,5.49c-4,1.12-8.11,1.21-11.53-.6h0a2.65,2.65,0,0,0-2.66,4.58,18.26,18.26,0,0,0,7.73,2.7,26.06,26.06,0,0,0,7.91-.36,54.49,54.49,0,0,0,14-5.1A79.3,79.3,0,0,1,250.74,309c4-1.2,7.74-1.42,10.81-.24a3.68,3.68,0,0,0,.47.15,4.53,4.53,0,0,0,1,.17c1.75.94,3.47,1.9,5.15,2.9a131.84,131.84,0,0,1,21.38,15.33c3.38,2.8,6.44,6,9.57,9l4.42,4.87,1.1,1.22,1,1.28,2.06,2.56a142.27,142.27,0,0,1,14.51,21.84c1.12,1.88,2,3.87,3,5.83s1.94,3.91,2.73,5.94,1.72,4,2.48,6.05l2.16,6.16a147.51,147.51,0,0,1,5.73,25.33l0,.15,0,.2a7.5,7.5,0,1,0,14.8-2.48Z" fill="#98ff61"/></g></g></svg>